<?xml version="1.0" encoding="utf-8"?>

<!DOCTYPE svg PUBLIC "-//W3C//DTD SVG 1.0//EN" "http://www.w3.org/TR/2001/REC-SVG-20010904/DTD/svg10.dtd">
<!-- Uploaded to: SVG Repo, www.svgrepo.com, Generator: SVG Repo Mixer Tools -->
<svg version="1.0" id="Layer_1" xmlns="http://www.w3.org/2000/svg" xmlns:xlink="http://www.w3.org/1999/xlink" 
	 width="800px" height="800px" viewBox="0 0 64 64" enable-background="new 0 0 64 64" xml:space="preserve">
<g>
	<path fill="#394240" d="M44,0c-5.523,0-10.523,2.238-14.141,5.859l-24,24C2.238,33.477,0,38.477,0,44c0,11.047,8.953,20,20,20
		c5.523,0,10.523-2.238,14.141-5.859l24-24C61.762,30.523,64,25.523,64,20C64,8.953,55.047,0,44,0z M28.688,18.344l16.969,16.969
		L35.312,45.656L18.344,28.688L28.688,18.344z M20,56c-6.617,0-12-5.383-12-12c0-3.207,1.246-6.219,3.516-8.484l1.172-1.172
		l16.969,16.969l-1.176,1.172C26.219,54.75,23.207,56,20,56z M52.484,28.484l-1.172,1.172L34.344,12.688l1.176-1.172
		C37.781,9.25,40.793,8,44,8c6.617,0,12,5.383,12,12C56,23.207,54.754,26.219,52.484,28.484z"/>
	
		<rect x="20.001" y="24.686" transform="matrix(-0.7071 -0.7071 0.7071 -0.7071 32 77.2548)" fill="#F76D57" width="23.997" height="14.628"/>
	<g>
		<path fill="#F9EBB2" d="M11.516,35.516C9.246,37.781,8,40.793,8,44c0,6.617,5.383,12,12,12c3.207,0,6.219-1.25,8.48-3.516
			l1.176-1.172L12.688,34.344L11.516,35.516z"/>
		<path fill="#F9EBB2" d="M44,8c-3.207,0-6.219,1.25-8.48,3.516l-1.176,1.172l16.969,16.969l1.172-1.172
			C54.754,26.219,56,23.207,56,20C56,13.383,50.617,8,44,8z"/>
	</g>
</g>
</svg>